name C:\Users\u0101727\Documents\MyRepositories\upper-imu-dc\Results\main_tracking\Case_46\FLX02_linearAccelerations_groundFrame.mot
datacolumns 4
datarows 141
range 0.51000000 1.91000000
endheader 
time	radius_imu_x	radius_imu_y	radius_imu_z	
          0.51000000	         -0.34475432	          9.72638986	         -0.94626682	
          0.52000000	         -0.30684490	          9.71534660	         -1.08169950	
          0.53000000	         -0.33590921	          9.70361193	         -1.14087376	
          0.54000000	         -0.36916693	          9.70428444	         -1.17115270	
          0.55000000	         -0.39521928	          9.70824000	         -1.18432565	
          0.56000000	         -0.41357444	          9.71526635	         -1.18795192	
          0.57000000	         -0.42738827	          9.72348806	         -1.18795332	
          0.58000000	         -0.44254906	          9.73102569	         -1.19163344	
          0.59000000	         -0.46914894	          9.73565139	         -1.21104086	
          0.60000000	         -0.52702049	          9.73117619	         -1.25440676	
          0.61000000	         -0.60942624	          9.72717324	         -1.34699748	
          0.62000000	         -0.75275537	          9.68656906	         -1.42037193	
          0.63000000	         -0.70445287	          9.67766973	         -1.71040617	
          0.64000000	          0.61026568	          9.63187605	         -0.75890449	
          0.65000000	          1.06824049	         10.15727436	          0.13255791	
          0.66000000	          0.75980631	         10.15045966	          0.11519271	
          0.67000000	          0.48214958	         10.09962612	         -0.05890961	
          0.68000000	         -0.05479514	         10.01487930	         -0.34494825	
          0.69000000	         -0.99298610	          9.79562217	         -1.13681783	
          0.70000000	          0.15862728	          9.58442416	         -1.13454686	
          0.71000000	          0.83296116	          9.82312462	         -0.50503240	
          0.72000000	          0.87352612	         10.28667065	          0.22646851	
          0.73000000	          0.46236805	         10.29292483	          0.30573644	
          0.74000000	          0.25361345	         10.29648520	          0.27888668	
          0.75000000	          0.03163926	         10.28174660	          0.23791364	
          0.76000000	         -0.12800995	         10.29724008	          0.23407175	
          0.77000000	         -0.23690676	         10.31170939	          0.25494496	
          0.78000000	         -0.39900496	         10.32142203	          0.25370855	
          0.79000000	         -0.53400492	         10.33773309	          0.27867098	
          0.80000000	         -0.68566691	         10.35150134	          0.29191189	
          0.81000000	         -0.83755291	         10.36688483	          0.31282499	
          0.82000000	         -0.99253268	         10.38259547	          0.33224110	
          0.83000000	         -1.14774397	         10.39880417	          0.35333005	
          0.84000000	         -1.30063365	         10.41588679	          0.37613067	
          0.85000000	         -1.44907721	         10.43415201	          0.40211857	
          0.86000000	         -1.59081847	         10.45424619	          0.43279364	
          0.87000000	         -1.72385479	         10.47697772	          0.46990893	
          0.88000000	         -1.84694143	         10.50317704	          0.51488628	
          0.89000000	         -1.96024750	         10.53337584	          0.56823357	
          0.90000000	         -2.06557441	         10.56753347	          0.62894152	
          0.91000000	         -2.16610738	         10.60487005	          0.69419982	
          0.92000000	         -2.26580991	         10.64388195	          0.75959724	
          0.93000000	         -2.36870381	         10.68249447	          0.81976389	
          0.94000000	         -2.47826087	         10.71834160	          0.86921756	
          0.95000000	         -2.59711396	         10.74905417	          0.90323759	
          0.96000000	         -2.72697979	         10.77256010	          0.91852813	
          0.97000000	         -2.86873052	         10.78722707	          0.91343407	
          0.98000000	         -3.02231990	         10.79198512	          0.88786457	
          0.99000000	         -3.18667772	         10.78643508	          0.84307361	
          1.00000000	         -3.35969372	         10.77091811	          0.78130617	
          1.01000000	         -3.53840595	         10.74643040	          0.70521468	
          1.02000000	         -3.71934325	         10.71435570	          0.61716763	
          1.03000000	         -3.89889352	         10.67615680	          0.51871043	
          1.04000000	         -4.07358351	         10.63314678	          0.41039893	
          1.05000000	         -4.24018486	         10.58643025	          0.29202618	
          1.06000000	         -4.39563968	         10.53703120	          0.16317487	
          1.07000000	         -4.53686817	         10.48617963	          0.02392115	
          1.08000000	         -4.66063429	         10.43562518	         -0.12458885	
          1.09000000	         -4.76370418	         10.38775757	         -0.27997142	
          1.10000000	         -4.84335857	         10.34540642	         -0.43888720	
          1.11000000	         -4.89799350	         10.31144462	         -0.59750652	
          1.12000000	         -4.92745010	         10.28844166	         -0.75186725	
          1.13000000	         -4.93295535	         10.27849363	         -0.89806424	
          1.14000000	         -4.91681972	         10.28319470	         -1.03237520	
          1.15000000	         -4.88212896	         10.30361665	         -1.15146501	
          1.16000000	         -4.83251119	         10.34026631	         -1.25263176	
          1.17000000	         -4.77197479	         10.39297757	         -1.33411664	
          1.18000000	         -4.70471331	         10.46085041	         -1.39533337	
          1.19000000	         -4.63487378	         10.54222508	         -1.43704399	
          1.20000000	         -4.56632155	         10.63470944	         -1.46141645	
          1.21000000	         -4.50242817	         10.73526169	         -1.47192734	
          1.22000000	         -4.44583988	         10.84039948	         -1.47303187	
          1.23000000	         -4.39824931	         10.94656224	         -1.46959762	
          1.24000000	         -4.36008248	         11.05050914	         -1.46640070	
          1.25000000	         -4.33066915	         11.14946859	         -1.46768410	
          1.26000000	         -4.30917343	         11.24010615	         -1.47773580	
          1.27000000	         -4.29409375	         11.31983456	         -1.49950207	
          1.28000000	         -4.28400615	         11.38605410	         -1.53513653	
          1.29000000	         -4.27759891	         11.43597751	         -1.58631699	
          1.30000000	         -4.27318080	         11.46713505	         -1.65419985	
          1.31000000	         -4.26863495	         11.47726864	         -1.73978345	
          1.32000000	         -4.26179086	         11.46395418	         -1.84403233	
          1.33000000	         -4.25105710	         11.42419533	         -1.96758497	
          1.34000000	         -4.23581149	         11.35407013	         -2.11057953	
          1.35000000	         -4.21640311	         11.24841010	         -2.27284962	
          1.36000000	         -4.19373626	         11.10089080	         -2.45418673	
          1.37000000	         -4.16865938	         10.90451222	         -2.65429531	
          1.38000000	         -4.14153115	         10.65257226	         -2.87279805	
          1.39000000	         -4.11187841	         10.33918968	         -3.10722727	
          1.40000000	         -4.08100345	          9.96298174	         -3.35356142	
          1.41000000	         -4.05477683	          9.52171296	         -3.57940117	
          1.42000000	         -4.05012830	          9.05175821	         -3.77978655	
          1.43000000	         -3.93610442	          8.59085631	         -3.83612457	
          1.44000000	         -3.32540518	          8.67892693	         -4.70874145	
          1.45000000	         -3.22514352	          9.27145475	         -3.28034475	
          1.46000000	         -2.91208043	         10.79085590	         -2.83630495	
          1.47000000	         -2.43496487	         11.32490123	         -2.81891118	
          1.48000000	         -2.23905552	         11.28361319	         -3.11813792	
          1.49000000	         -2.12663003	         10.96794990	         -3.43330477	
          1.50000000	         -2.01816320	         10.54852743	         -3.77973810	
          1.51000000	         -1.89521301	         10.08911888	         -4.09686360	
          1.52000000	         -1.75780258	          9.62595418	         -4.37842969	
          1.53000000	         -1.55541642	          9.17522791	         -4.58660702	
          1.54000000	         -1.11434779	          8.90441161	         -5.22343711	
          1.55000000	         -1.04027265	          9.02999371	         -4.73108399	
          1.56000000	         -0.70817811	          9.38698885	         -4.79429386	
          1.57000000	         -0.64500379	          9.50576498	         -4.82962418	
          1.58000000	         -0.36233648	          9.61131529	         -4.39924305	
          1.59000000	         -0.23076824	          9.59402585	         -4.78009850	
          1.60000000	         -0.04005785	          9.54220497	         -4.40615397	
          1.61000000	          0.23623250	          9.39122870	         -4.75902221	
          1.62000000	          0.19536690	          9.11333399	         -4.56175710	
          1.63000000	          0.24670989	          8.88008972	         -4.58894683	
          1.64000000	          0.28910942	          8.71403239	         -4.16955161	
          1.65000000	          0.38753128	          8.74157250	         -4.14000920	
          1.66000000	          0.40647893	          8.77282905	         -3.55485624	
          1.67000000	          0.23437163	          8.56896206	         -3.33308248	
          1.68000000	          0.12222199	          8.65193711	         -2.69153006	
          1.69000000	         -0.27478960	          8.21239237	         -2.14180802	
          1.70000000	          0.00953930	          8.56238050	         -2.66473827	
          1.71000000	          0.20908275	          8.45942296	         -2.60855211	
          1.72000000	          0.50852364	          8.46364695	         -2.79555424	
          1.73000000	          0.79852403	          8.31531680	         -3.16141182	
          1.74000000	          0.78089343	          8.53774068	         -2.91312772	
          1.75000000	          0.77955729	          8.34659937	         -3.11720066	
          1.76000000	          1.10978192	          8.17381604	         -3.59064161	
          1.77000000	          1.63268698	          7.58571105	         -3.95230121	
          1.78000000	          1.74936133	          7.70660708	         -4.74594762	
          1.79000000	          2.26987377	          7.86656750	         -5.39029865	
          1.80000000	          2.86566627	          8.40299386	         -6.37216252	
          1.81000000	          3.55341632	          9.21648657	         -7.57885935	
          1.82000000	          4.13663198	          9.96658430	         -8.65269455	
          1.83000000	          4.90935036	         10.67185610	         -8.68884466	
          1.84000000	          4.01446049	         11.10446951	         -7.52421656	
          1.85000000	          3.26256243	         10.99506451	         -6.49016922	
          1.86000000	          2.56025624	         10.93590900	         -5.53578278	
          1.87000000	          2.10128844	         11.00583067	         -5.81139479	
          1.88000000	          2.83149126	         11.45763531	         -6.59453333	
          1.89000000	          2.02020316	         11.77342029	         -5.53415094	
          1.90000000	          1.59199972	         11.41468064	         -5.15914073	
          1.91000000	          1.19367254	         11.09384708	         -4.81570041	
